<svg width="90" height="90" viewBox="0 0 90 90" fill="none" xmlns="http://www.w3.org/2000/svg">
<circle cx="45" cy="45" r="45" fill="#F4A300"/>
<path d="M64.555 39.3225H61.825C61.1039 39.3096 60.4159 39.0173 59.9062 38.5071C59.3964 37.9968 59.1047 37.3086 59.0925 36.5875C59.0922 34.7372 58.7274 32.905 58.019 31.1957C57.3106 29.4863 56.2725 27.9332 54.9639 26.6251C53.6553 25.317 52.1018 24.2794 50.3922 23.5716C48.6826 22.8638 46.8503 22.4997 45 22.5H36.59C32.8535 22.5 29.2701 23.9841 26.6277 26.626C23.9854 29.2678 22.5007 32.851 22.5 36.5875V53.4125C22.5007 57.149 23.9854 60.7322 26.6277 63.374C29.2701 66.0159 32.8535 67.5 36.59 67.5H53.4125C57.149 67.4993 60.7322 66.0146 63.374 63.3722C66.0159 60.7299 67.5 57.1465 67.5 53.41V42.265C67.5093 41.8758 67.4394 41.4889 67.2946 41.1275C67.1499 40.7662 66.9333 40.438 66.6579 40.1628C66.3825 39.8877 66.0541 39.6713 65.6927 39.5269C65.3312 39.3825 64.9441 39.3129 64.555 39.3225ZM36.38 33.855H46.4725C47.945 33.855 49.205 35.115 49.205 36.5875C49.205 38.06 47.945 39.325 46.475 39.325H36.375C35.6539 39.3121 34.9659 39.0198 34.4562 38.5096C33.9464 37.9993 33.6547 37.3111 33.6425 36.59C33.6425 35.1175 34.905 33.8575 36.375 33.8575M53.6175 56.1475H36.59C35.8684 56.1353 35.1799 55.8432 34.6696 55.3329C34.1593 54.8226 33.8672 54.1341 33.855 53.4125C33.855 51.94 35.1175 50.68 36.59 50.68H53.6225C55.0925 50.68 56.355 51.94 56.355 53.4125C56.355 54.885 55.0925 56.1475 53.6225 56.1475" fill="#2E4328"/>
</svg>
