<svg width="311" height="92" viewBox="0 0 311 92" fill="none" xmlns="http://www.w3.org/2000/svg">
<circle cx="45" cy="47" r="45" fill="#F4A300"/>
<path d="M137.005 24.3148C141.659 24.3148 145.681 25.1926 149.07 26.9481C152.499 28.6629 155.112 31.133 156.908 34.3583C158.746 37.5837 159.664 41.3807 159.664 45.7492C159.664 50.1178 158.746 53.9148 156.908 57.1401C155.112 60.3247 152.499 62.7743 149.07 64.4891C145.681 66.163 141.659 67 137.005 67H123.716V24.3148H137.005ZM137.005 62.4069C142.517 62.4069 146.722 60.9575 149.621 58.0588C152.519 55.1192 153.969 51.016 153.969 45.7492C153.969 40.4417 152.499 36.2977 149.559 33.3172C146.661 30.3368 142.476 28.8466 137.005 28.8466H129.289V62.4069H137.005ZM183.673 32.8273C186.204 32.8273 188.49 33.3785 190.532 34.4808C192.573 35.5423 194.166 37.155 195.309 39.3189C196.493 41.4828 197.085 44.1161 197.085 47.219V67H191.573V48.0152C191.573 44.6673 190.736 42.1156 189.062 40.36C187.388 38.5636 185.102 37.6654 182.203 37.6654C179.263 37.6654 176.916 38.584 175.16 40.4212C173.445 42.2585 172.588 44.9327 172.588 48.4439V67H167.015V21.6814H172.588V38.2166C173.69 36.5018 175.201 35.1749 177.12 34.2359C179.08 33.2968 181.264 32.8273 183.673 32.8273ZM211.761 38.8902C212.741 36.9713 214.129 35.4811 215.925 34.4196C217.763 33.3581 219.988 32.8273 222.601 32.8273V38.584H221.131C214.884 38.584 211.761 41.9727 211.761 48.7501V67H206.188V33.4397H211.761V38.8902ZM258.797 33.4397V67H253.224V62.0394C252.163 63.7542 250.673 65.1015 248.754 66.0814C246.876 67.0204 244.793 67.4899 242.507 67.4899C239.894 67.4899 237.547 66.9592 235.464 65.8977C233.382 64.7953 231.729 63.1622 230.504 60.9983C229.32 58.8345 228.728 56.2011 228.728 53.0982V33.4397H234.24V52.3633C234.24 55.6703 235.076 58.2221 236.75 60.0185C238.424 61.7741 240.711 62.6519 243.609 62.6519C246.59 62.6519 248.937 61.7332 250.652 59.896C252.367 58.0588 253.224 55.3846 253.224 51.8734V33.4397H258.797ZM280.7 61.8557L291.111 33.4397H297.052L283.885 67H277.393L264.226 33.4397H270.228L280.7 61.8557Z" fill="white"/>
<path d="M304.312 67.3674C303.25 67.3674 302.352 67 301.617 66.2651C300.882 65.5302 300.515 64.632 300.515 63.5705C300.515 62.509 300.882 61.6108 301.617 60.8759C302.352 60.141 303.25 59.7735 304.312 59.7735C305.332 59.7735 306.19 60.141 306.884 60.8759C307.619 61.6108 307.986 62.509 307.986 63.5705C307.986 64.632 307.619 65.5302 306.884 66.2651C306.19 67 305.332 67.3674 304.312 67.3674Z" fill="#F4A300"/>
<g filter="url(#filter0_d_4_11)">
<path d="M42.024 29.496C45.544 29.496 48.632 30.184 51.288 31.56C53.976 32.936 56.04 34.904 57.48 37.464C58.952 39.992 59.688 42.936 59.688 46.296C59.688 49.656 58.952 52.6 57.48 55.128C56.04 57.624 53.976 59.56 51.288 60.936C48.632 62.312 45.544 63 42.024 63H30.312V29.496H42.024ZM41.784 57.288C45.304 57.288 48.024 56.328 49.944 54.408C51.864 52.488 52.824 49.784 52.824 46.296C52.824 42.808 51.864 40.088 49.944 38.136C48.024 36.152 45.304 35.16 41.784 35.16H37.032V57.288H41.784Z" fill="#2E4328"/>
</g>
<defs>
<filter id="filter0_d_4_11" x="30.312" y="29.496" width="39.376" height="47.504" filterUnits="userSpaceOnUse" color-interpolation-filters="sRGB">
<feFlood flood-opacity="0" result="BackgroundImageFix"/>
<feColorMatrix in="SourceAlpha" type="matrix" values="0 0 0 0 0 0 0 0 0 0 0 0 0 0 0 0 0 0 127 0" result="hardAlpha"/>
<feOffset dx="6" dy="10"/>
<feGaussianBlur stdDeviation="2"/>
<feComposite in2="hardAlpha" operator="out"/>
<feColorMatrix type="matrix" values="0 0 0 0 0 0 0 0 0 0 0 0 0 0 0 0 0 0 0.25 0"/>
<feBlend mode="normal" in2="BackgroundImageFix" result="effect1_dropShadow_4_11"/>
<feBlend mode="normal" in="SourceGraphic" in2="effect1_dropShadow_4_11" result="shape"/>
</filter>
</defs>
</svg>
