<svg width="90" height="90" viewBox="0 0 90 90" fill="none" xmlns="http://www.w3.org/2000/svg">
<circle cx="45" cy="45" r="45" fill="#F4A300"/>
<path d="M46.4825 73.145L46.455 73.15L46.2775 73.2375L46.2275 73.2475L46.1925 73.2375L46.015 73.15C45.9883 73.1416 45.9683 73.1458 45.955 73.1625L45.945 73.1875L45.9025 74.2575L45.915 74.3075L45.94 74.34L46.2 74.525L46.2375 74.535L46.2675 74.525L46.5275 74.34L46.5575 74.3L46.5675 74.2575L46.525 73.19C46.5183 73.1633 46.5042 73.1483 46.4825 73.145ZM47.145 72.8625L47.1125 72.8675L46.65 73.1L46.625 73.125L46.6175 73.1525L46.6625 74.2275L46.675 74.2575L46.695 74.275L47.1975 74.5075C47.2292 74.5158 47.2533 74.5091 47.27 74.4875L47.28 74.4525L47.195 72.9175C47.1867 72.8875 47.17 72.8691 47.145 72.8625ZM45.3575 72.8675C45.3465 72.8608 45.3333 72.8586 45.3207 72.8614C45.3082 72.8642 45.2972 72.8718 45.29 72.8825L45.275 72.9175L45.19 74.4525C45.1917 74.4825 45.2058 74.5025 45.2325 74.5125L45.27 74.5075L45.7725 74.275L45.7975 74.255L45.8075 74.2275L45.85 73.1525L45.8425 73.1225L45.8175 73.0975L45.3575 72.8675Z" fill="#2E4328"/>
<path d="M32.56 20.775C34.4383 21.4088 36.2246 22.2881 37.8725 23.39C40.2013 22.7939 42.5961 22.4949 45 22.5C47.4825 22.5 49.8775 22.81 52.1225 23.3875C53.7698 22.2867 55.5552 21.4082 57.4325 20.775C59.175 20.1825 61.6575 19.2225 63.1325 20.855C64.1325 21.965 64.3825 23.825 64.56 25.245C64.76 26.83 64.8075 28.895 64.2825 30.945C66.29 33.5375 67.5 36.63 67.5 40C67.5 45.105 64.735 49.5375 60.6425 52.6075C58.672 54.0648 56.4878 55.2083 54.1675 55.9975C54.7025 57.2225 55 58.5775 55 60V67.5C55 68.163 54.7366 68.7989 54.2678 69.2677C53.7989 69.7366 53.163 70 52.5 70H37.5C36.837 70 36.2011 69.7366 35.7322 69.2677C35.2634 68.7989 35 68.163 35 67.5V65.0225C32.6125 65.315 30.61 65.055 28.9075 64.3325C27.1275 63.5775 25.8875 62.4075 24.955 61.2875C24.07 60.2275 23.105 57.8375 21.71 57.3725C21.3984 57.2687 21.1104 57.1046 20.8622 56.8896C20.6141 56.6745 20.4107 56.4126 20.2638 56.119C19.967 55.5259 19.918 54.8392 20.1275 54.21C20.337 53.5807 20.7879 53.0605 21.381 52.7637C21.9741 52.467 22.6608 52.4179 23.29 52.6275C24.955 53.1825 26.04 54.3825 26.7825 55.3475C27.9825 56.8975 28.9575 58.9225 30.8575 59.73C31.64 60.0625 32.7875 60.28 34.5825 60.035L35 59.95C35.0058 58.5896 35.289 57.2446 35.8325 55.9975C33.5122 55.2083 31.328 54.0648 29.3575 52.6075C25.265 49.5375 22.5 45.1075 22.5 40C22.5 36.635 23.7075 33.545 25.71 30.955C25.185 28.905 25.23 26.835 25.43 25.2475L25.4425 25.1525C25.625 23.6975 25.8375 21.985 26.8575 20.855C28.3325 19.2225 30.8175 20.185 32.5575 20.7775L32.56 20.775Z" fill="#2E4328"/>
</svg>
