<svg width="90" height="90" viewBox="0 0 90 90" fill="none" xmlns="http://www.w3.org/2000/svg">
<circle cx="45" cy="45" r="45" fill="#F4A300"/>
<path d="M55 22.5C58.3152 22.5 61.4946 23.817 63.8388 26.1612C66.183 28.5054 67.5 31.6848 67.5 35V55C67.5 58.3152 66.183 61.4946 63.8388 63.8388C61.4946 66.183 58.3152 67.5 55 67.5H35C31.6848 67.5 28.5054 66.183 26.1612 63.8388C23.817 61.4946 22.5 58.3152 22.5 55V35C22.5 31.6848 23.817 28.5054 26.1612 26.1612C28.5054 23.817 31.6848 22.5 35 22.5H55ZM45 35C42.3478 35 39.8043 36.0536 37.9289 37.9289C36.0536 39.8043 35 42.3478 35 45C35 47.6522 36.0536 50.1957 37.9289 52.0711C39.8043 53.9464 42.3478 55 45 55C47.6522 55 50.1957 53.9464 52.0711 52.0711C53.9464 50.1957 55 47.6522 55 45C55 42.3478 53.9464 39.8043 52.0711 37.9289C50.1957 36.0536 47.6522 35 45 35ZM45 40C46.3261 40 47.5979 40.5268 48.5355 41.4645C49.4732 42.4021 50 43.6739 50 45C50 46.3261 49.4732 47.5979 48.5355 48.5355C47.5979 49.4732 46.3261 50 45 50C43.6739 50 42.4021 49.4732 41.4645 48.5355C40.5268 47.5979 40 46.3261 40 45C40 43.6739 40.5268 42.4021 41.4645 41.4645C42.4021 40.5268 43.6739 40 45 40ZM56.25 31.25C55.587 31.25 54.9511 31.5134 54.4822 31.9822C54.0134 32.4511 53.75 33.087 53.75 33.75C53.75 34.413 54.0134 35.0489 54.4822 35.5178C54.9511 35.9866 55.587 36.25 56.25 36.25C56.913 36.25 57.5489 35.9866 58.0178 35.5178C58.4866 35.0489 58.75 34.413 58.75 33.75C58.75 33.087 58.4866 32.4511 58.0178 31.9822C57.5489 31.5134 56.913 31.25 56.25 31.25Z" fill="#2E4328"/>
</svg>
