<svg width="90" height="90" viewBox="0 0 90 90" fill="none" xmlns="http://www.w3.org/2000/svg">
<circle cx="45" cy="45" r="45" fill="#F4A300"/>
<path d="M32.35 27.5C32.3493 28.8261 31.8219 30.0976 30.8838 31.0348C29.9456 31.972 28.6736 32.4982 27.3475 32.4975C26.0214 32.4968 24.7499 31.9694 23.8127 31.0313C22.8755 30.0931 22.3493 28.8211 22.35 27.495C22.3507 26.1689 22.8781 24.8974 23.8162 23.9602C24.7544 23.023 26.0264 22.4968 27.3525 22.4975C28.6786 22.4982 29.9501 23.0256 30.8873 23.9637C31.8245 24.9019 32.3507 26.1739 32.35 27.5ZM32.5 36.2H22.5V67.5H32.5V36.2ZM48.3 36.2H38.35V67.5H48.2V51.075C48.2 41.925 60.125 41.075 60.125 51.075V67.5H70V47.675C70 32.25 52.35 32.825 48.2 40.4L48.3 36.2Z" fill="#2E4328"/>
</svg>
