<svg width="91" height="91" viewBox="0 0 91 91" fill="none" xmlns="http://www.w3.org/2000/svg">
<path d="M16.1525 38.474C15.1096 46.4576 14.4881 54.4907 14.2908 62.5397C25.2062 67.0992 35.6575 72.6988 45.5 79.261C55.3437 72.6986 65.7962 67.099 76.713 62.5397C76.5155 54.4907 75.894 46.4577 74.8513 38.474M74.8513 38.474C78.169 37.3593 81.5322 36.3279 84.9295 35.3876C72.5557 26.7132 59.347 19.2953 45.5 13.2443C31.6528 19.2966 18.4442 26.7157 6.07043 35.3914C9.45743 36.3265 12.8181 37.3544 16.1487 38.474C26.2672 41.8759 36.0849 46.1145 45.5 51.1458C54.9137 46.1144 64.7339 41.8759 74.8513 38.474ZM25.5937 56.875C26.3479 56.875 27.0713 56.5754 27.6046 56.0421C28.1379 55.5087 28.4375 54.7854 28.4375 54.0312C28.4375 53.277 28.1379 52.5537 27.6046 52.0204C27.0713 51.4871 26.3479 51.1875 25.5937 51.1875C24.8395 51.1875 24.1162 51.4871 23.5829 52.0204C23.0496 52.5537 22.75 53.277 22.75 54.0312C22.75 54.7854 23.0496 55.5087 23.5829 56.0421C24.1162 56.5754 24.8395 56.875 25.5937 56.875ZM25.5937 56.875V42.9406C32.0272 38.9417 38.6723 35.2938 45.5 32.013M18.9318 75.8068C21.0474 73.6963 22.7251 71.1886 23.8684 68.4276C25.0117 65.6667 25.598 62.707 25.5937 59.7187V54.0312" stroke="#F4A300" stroke-width="5.59" stroke-linecap="round" stroke-linejoin="round"/>
</svg>
