<svg width="91" height="91" viewBox="0 0 91 91" fill="none" xmlns="http://www.w3.org/2000/svg">
<path d="M45.5 28.4375H51.1875M45.5 39.8125H51.1875M22.75 51.1875H51.1875M22.75 62.5625H51.1875M62.5625 28.4375H75.3594C77.714 28.4375 79.625 30.3485 79.625 32.7031V68.25C79.625 70.5126 78.7262 72.6826 77.1263 74.2825C75.5263 75.8824 73.3564 76.7813 71.0938 76.7813M62.5625 28.4375V68.25C62.5625 70.5126 63.4613 72.6826 65.0612 74.2825C66.6612 75.8824 68.8311 76.7813 71.0938 76.7813M62.5625 28.4375V18.4844C62.5625 16.1298 60.6515 14.2188 58.2969 14.2188H15.6406C13.286 14.2188 11.375 16.1298 11.375 18.4844V68.25C11.375 70.5126 12.2738 72.6826 13.8737 74.2825C15.4737 75.8824 17.6436 76.7813 19.9063 76.7813H71.0938M22.75 28.4375H34.125V39.8125H22.75V28.4375Z" stroke="#F4A300" stroke-width="5.6875" stroke-linecap="round" stroke-linejoin="round"/>
</svg>
