<svg width="91" height="91" viewBox="0 0 91 91" fill="none" xmlns="http://www.w3.org/2000/svg">
<path d="M59.7187 22.75C59.7187 26.521 58.2207 30.1376 55.5542 32.8042C52.8876 35.4707 49.271 36.9688 45.5 36.9688C41.7289 36.9688 38.1124 35.4707 35.4458 32.8042C32.7793 30.1376 31.2812 26.521 31.2812 22.75C31.2812 18.979 32.7793 15.3624 35.4458 12.6958C38.1124 10.0293 41.7289 8.53125 45.5 8.53125C49.271 8.53125 52.8876 10.0293 55.5542 12.6958C58.2207 15.3624 59.7187 18.979 59.7187 22.75ZM17.0663 76.2808C17.1881 68.8201 20.2374 61.7062 25.5565 56.4733C30.8756 51.2403 38.0383 48.3076 45.5 48.3076C52.9617 48.3076 60.1244 51.2403 65.4435 56.4733C70.7626 61.7062 73.8119 68.8201 73.9337 76.2808C65.0134 80.3711 55.3134 82.4821 45.5 82.4688C35.3535 82.4688 25.7227 80.2544 17.0663 76.2808Z" stroke="#F4A300" stroke-width="5.69" stroke-linecap="round" stroke-linejoin="round"/>
</svg>
