<svg width="91" height="91" viewBox="0 0 91 91" fill="none" xmlns="http://www.w3.org/2000/svg">
<g clip-path="url(#clip0_32_2)">
<path d="M48.6502 1.25C55.6678 1.2501 61.2254 6.80762 61.2254 13.8252C61.2253 20.8674 55.4678 26.4003 48.6502 26.4004C41.8325 26.4004 36.0751 20.8675 36.075 13.8252C36.075 6.80756 41.6326 1.25 48.6502 1.25Z" stroke="#F4A300" stroke-width="4.5"/>
<path d="M33.0581 31.6681C34.2519 28.6839 37.1555 27.2515 39.9165 27.423L40.1831 27.4445L40.2358 27.4493L40.2886 27.4572L50.439 28.8566L50.4526 28.8585L50.8745 28.9337C52.9011 29.3689 54.4836 30.7811 55.3247 32.3712L61.1577 42.6554H67.3804L68.2202 34.5323C68.5836 30.765 72.1654 28.5635 75.4858 28.84C78.8481 29.1202 81.944 31.9977 81.5806 35.6329L81.5786 35.6593L81.5747 35.6857L75.8003 84.3351L75.7896 84.423L75.7739 84.5089C75.2442 87.4225 72.9514 89.7547 69.9468 90.1183C69.6376 90.2401 69.2397 90.3448 68.7749 90.3448H68.6567L68.5386 90.3351C65.0518 90.0444 62.2823 87.2464 62.6167 83.5675L62.6206 83.5236L62.6265 83.4796L66.0864 55.17H55.9995C54.4582 55.1699 53.2047 54.501 52.3403 53.8361C51.4652 53.1629 50.7828 52.3401 50.3081 51.6281L50.2573 51.5519L50.2114 51.4738L48.5669 48.6281L47.5796 51.0529L56.5835 61.1251C57.7351 62.1135 58.7619 63.5839 58.8374 65.4103L60.5815 83.3751L60.5854 83.4142C60.9174 87.4002 57.6019 90.3448 53.8999 90.3448C50.7182 90.3448 47.5604 88.0324 47.2192 84.463L45.7856 71.0812L27.978 58.88C25.6879 57.3987 24.3132 54.5652 25.3013 51.6007L25.3237 51.5333L25.3491 51.4679L33.0493 31.6925L33.0532 31.6808L33.0581 31.6681Z" stroke="#F4A300" stroke-width="5.69"/>
<path d="M13.2696 35.2036C15.4261 29.0912 21.592 25.0984 28.2305 25.6353L28.878 25.7017L28.9815 25.7153L29.0831 25.7349L29.9581 25.9106L34.1241 26.7437L31.7676 30.2778C31.1887 31.1462 30.7842 31.9703 30.5245 32.7495L30.502 32.8169L30.4756 32.8823L24.001 49.5073L23.9962 49.52L23.9913 49.5317C22.7423 52.6537 19.1304 54.4275 15.628 53.1313L14.2579 52.8276L14.2217 52.8188L14.1846 52.8101C10.3124 51.8418 8.52322 47.7302 9.75104 44.353L9.75983 44.3286L9.76959 44.3032L13.2696 35.2036Z" stroke="#F4A300" stroke-width="5.69"/>
<path d="M25.0718 59.0551C25.6827 59.3605 26.2456 59.8259 26.6851 60.3744L34.9244 65.4818L37.0484 66.7992L36.0162 69.0756L28.3423 85.9916C27.3356 88.5125 24.6861 90.1701 22.0504 90.1703H17.6754C14.7002 90.1703 12.2819 87.4427 13.189 84.2679L13.2076 84.2054L13.2281 84.1439L21.1031 60.6947L22.1451 57.5912L25.0718 59.0551Z" stroke="#F4A300" stroke-width="5.69"/>
</g>
<defs>
<clipPath id="clip0_32_2">
<rect width="91" height="91" fill="white"/>
</clipPath>
</defs>
</svg>
